# xmcd
#
# Track frame offsets: 
#        150
#        29210
#        52570
#        90271
#        117026
#        141183
#        172503
#        201987
#        241842
#        284419
#        302434
#
# Disc length: 4334 seconds
#
# Revision: 0
# Processed by: cddbd v1.5.2PL0 Copyright (c) Steve Scherf et al.
# Submitted via: ExactAudioCopy v1.0b4
#
DISCID=8410ec0b
DTITLE=Freddie King - Live and Loud 1968
DYEAR=2014
DGENRE=Blues
TTITLE0=Ain't Nobody's Business
TTITLE1=I Wonder Why
TTITLE2=Have You Ever Loved A Woman
TTITLE3=Key To The Highway
TTITLE4=Hideaway
TTITLE5=Whole Lotta Lovin'
TTITLE6=Five Long Years
TTITLE7=Hideaway (Alternate Arrangement)
TTITLE8=Going Down
TTITLE9=Play It Cool (Bonus Track)
TTITLE10=Feelin' Good (I Wanna Boogie) (Bonus Track)
EXTD=
EXTT0=
EXTT1=
EXTT2=
EXTT3=
EXTT4=
EXTT5=
EXTT6=
EXTT7=
EXTT8=
EXTT9=
EXTT10=
PLAYORDER=
